<?xml version="1.0" encoding="iso-8859-1"?>
<!-- Uploaded to: SVG Repo, www.svgrepo.com, Generator: SVG Repo Mixer Tools -->
<svg height="800px" width="800px" version="1.1" id="Layer_1" xmlns="http://www.w3.org/2000/svg" xmlns:xlink="http://www.w3.org/1999/xlink" 
	 viewBox="0 0 512 512" xml:space="preserve">
<g>
	<path style="fill:#F4B2B0;" d="M269.015,87.152L269.015,87.152c12.879,0,25.376,1.632,37.296,4.698V53.245
		c0-20.598-16.698-37.296-37.296-37.296l0,0c-20.598,0-37.296,16.698-37.296,37.296V91.85
		C243.641,88.783,256.138,87.152,269.015,87.152z"/>
	<polygon style="fill:#F4B2B0;" points="458.553,448.747 79.479,448.747 119.799,342.767 418.231,342.767 	"/>
</g>
<path style="fill:#B3404A;" d="M487.303,44.72c-6.23-6.228-16.325-6.228-22.556,0l-76.973,76.973
	c-18.04-18.673-40.425-33.119-65.513-41.685V53.245C322.261,23.886,298.375,0,269.017,0c-29.36,0-53.246,23.886-53.246,53.245V80.01
	c-65.042,22.205-111.944,83.919-111.944,156.384v103.507L64.573,443.076c-0.314,0.825-0.529,1.67-0.7,2.52l-39.176,39.176
	c-6.228,6.228-6.228,16.327,0,22.556c3.115,3.115,7.196,4.671,11.277,4.671s8.163-1.557,11.277-4.671l42.633-42.632h368.669
	c0.011,0,0.024,0,0.032,0c8.808,0,15.949-7.14,15.949-15.949c0-2.365-0.514-4.611-1.437-6.628L433.14,337.097
	c-2.356-6.188-8.285-10.277-14.907-10.277H189.52c-0.169-0.003-0.337-0.003-0.506,0h-53.291v-90.426
	c0-64.245,45.688-118.016,106.281-130.537c0.118-0.024,0.234-0.049,0.352-0.073c2.027-0.413,4.072-0.778,6.132-1.097
	c0.327-0.049,0.655-0.091,0.982-0.139c1.563-0.231,3.137-0.426,4.716-0.601c0.635-0.07,1.268-0.147,1.904-0.207
	c1.657-0.159,3.324-0.282,4.998-0.381c0.866-0.051,1.734-0.088,2.603-0.121c1.15-0.046,2.303-0.072,3.459-0.088
	c1.246-0.018,2.491-0.018,3.737,0c1.153,0.016,2.303,0.041,3.448,0.088c0.869,0.034,1.74,0.07,2.609,0.121
	c1.671,0.099,3.336,0.22,4.992,0.381c0.64,0.061,1.279,0.139,1.917,0.209c1.573,0.175,3.137,0.368,4.692,0.598
	c0.335,0.049,0.671,0.091,1.005,0.142c2.054,0.319,4.092,0.683,6.113,1.094c0.126,0.026,0.252,0.053,0.378,0.078
	c26.899,5.561,50.835,19.276,69.163,38.405l-93.557,93.557c-6.228,6.228-6.228,16.327,0,22.556
	c3.115,3.115,7.196,4.671,11.277,4.671c4.081,0,8.163-1.557,11.277-4.671l90.338-90.34c11.277,19.556,17.765,42.207,17.765,66.356
	v43.698c0,8.808,7.142,15.949,15.949,15.949s15.949-7.14,15.949-15.949v-43.698c0-32.988-9.726-63.747-26.453-89.566l79.551-79.551
	C493.531,61.047,493.531,50.948,487.303,44.72z M130.795,358.715h19.957l-32.212,32.212L130.795,358.715z M435.421,432.799H121.78
	l74.083-74.083h211.373L435.421,432.799z M247.668,72.573v-19.33c0-11.77,9.577-21.347,21.349-21.347s21.347,9.576,21.347,21.347
	v19.33c-0.077-0.01-0.153-0.016-0.23-0.026c-1.561-0.201-3.132-0.375-4.708-0.531c-0.453-0.045-0.906-0.08-1.359-0.121
	c-1.207-0.11-2.418-0.207-3.633-0.292c-0.488-0.033-0.978-0.064-1.466-0.092c-1.263-0.075-2.529-0.136-3.801-0.182
	c-0.383-0.014-0.764-0.032-1.147-0.043c-1.662-0.049-3.328-0.083-5.003-0.083c-1.678,0-3.348,0.033-5.014,0.083
	c-0.375,0.011-0.748,0.029-1.123,0.043c-1.279,0.046-2.557,0.107-3.829,0.183c-0.482,0.029-0.962,0.059-1.443,0.092
	c-1.225,0.085-2.447,0.183-3.665,0.293c-0.445,0.04-0.888,0.075-1.332,0.118c-1.576,0.156-3.145,0.33-4.708,0.531
	C247.824,72.557,247.746,72.563,247.668,72.573z"/>
</svg>